<svg width="134" height="228" viewBox="0 0 134 228" fill="none" xmlns="http://www.w3.org/2000/svg">
<path fill-rule="evenodd" clip-rule="evenodd" d="M122.939 227.418C104.077 225.608 86.4757 219.598 70.7894 209.797L-175.943 55.6301C-178.884 53.7924 -180.378 50.3652 -179.565 46.8827C-178.752 43.4002 -176.408 40.3758 -172.552 39.294L-54.6487 6.22243C-25.9995 -1.81368 2.7608 -1.30098 29.8766 7.66127C38.5137 10.5641 46.7026 14.1844 54.4431 18.5221L54.7699 18.7263C62.0621 23.7815 69.2328 29.7584 75.3016 36.0443C95.142 55.9231 108.315 82.1102 113.652 111.383L133.072 216.292C133.585 219.106 132.669 222.026 130.774 224.333C128.654 226.998 125.899 227.771 122.939 227.418Z" fill="url(#paint0_linear_123_1094)"/>
<defs>
<linearGradient id="paint0_linear_123_1094" x1="95.8318" y1="209.502" x2="6.50382" y2="14.8443" gradientUnits="userSpaceOnUse">
<stop stop-color="#C173FF"/>
<stop offset="1" stop-color="#1E18EE"/>
</linearGradient>
</defs>
</svg>
