<svg width="1149" height="519" viewBox="0 0 1149 519" fill="none" xmlns="http://www.w3.org/2000/svg">
<path opacity="0.1" d="M189.388 125.509C187.435 138.795 177.666 149.541 164.771 153.839L159.887 155.402C142.498 180.02 111.824 190.571 85.8396 175.331L78.22 170.837L56.9241 145.438H56.7287C49.8906 146.805 42.2709 145.828 37.3866 141.139C36.605 145.242 31.1345 147.782 27.4224 145.633C23.7103 143.484 23.3195 137.427 26.6409 134.692C22.3427 138.404 15.6999 136.841 11.597 132.542C11.4017 121.21 12.5739 109.878 15.3092 98.7411C17.0675 91.7074 19.2167 85.0643 22.1473 78.8121C24.2964 73.9275 26.6409 69.0429 29.1808 64.5491C29.3762 64.1584 29.5715 63.7676 29.7669 63.3769C33.6744 56.5385 37.9727 50.0908 42.8571 43.8386C43.6386 43.057 44.4201 42.2755 45.3969 41.6894C47.3507 39.9309 49.1091 38.3678 51.0628 36.6094C51.2582 36.6094 51.2582 36.414 51.4536 36.2186C54.5796 33.4833 57.5102 30.9433 60.6362 28.4033C65.3252 24.3003 70.2096 20.3926 75.0939 16.485C75.2893 16.2896 75.4847 16.2896 75.4847 16.0942C79.783 12.7727 83.8858 9.4512 88.1841 6.12969C90.3332 4.56663 92.4823 2.80818 94.6315 1.24512C95.9991 1.4405 97.1713 1.63587 98.3436 2.02664C103.619 3.78508 104.4 8.66966 108.112 11.9912C112.997 16.2896 117.49 9.06041 124.915 9.25579C147.773 10.0373 138.786 33.2879 149.923 30.3571C197.985 17.6573 189.779 79.0075 169.069 92.4889C181.183 102.844 191.733 109.683 189.388 125.509Z" fill="#8D56FA"/>
<path d="M86.23 183.928C130.902 183.928 167.115 148.15 167.115 104.016C167.115 59.8821 130.902 24.1045 86.23 24.1045C41.5583 24.1045 5.34473 59.8821 5.34473 104.016C5.34473 148.15 41.5583 183.928 86.23 183.928Z" fill="white" stroke="#263238" stroke-miterlimit="10"/>
<path d="M86.2297 173.572C127.017 173.572 160.082 140.944 160.082 100.694C160.082 60.4452 127.017 27.8167 86.2297 27.8167C45.4425 27.8167 12.3779 60.4452 12.3779 100.694C12.3779 140.944 45.4425 173.572 86.2297 173.572Z" fill="#263238" stroke="white" stroke-miterlimit="10"/>
<path d="M6.90884 129.416C2.21984 132.347 0.852214 142.116 4.56434 146.219C8.27647 150.322 15.31 147.196 16.6776 140.553C17.2637 142.311 19.6082 142.702 20.5851 141.139C21.3666 139.967 21.3666 138.208 20.7805 137.036C20.3897 136.645 20.5851 136.45 20.7805 137.036C23.125 138.99 27.2279 136.841 27.814 132.737C26.0556 143.484 35.8244 152.862 43.0532 147.391C40.9041 151.885 43.6394 157.942 47.3515 159.114C51.0636 160.286 54.9711 158.137 58.6832 155.597C62.2 153.253 65.9121 150.322 69.8196 150.127C73.141 149.931 76.267 151.885 79.5884 153.057C89.9433 156.574 101.861 151.885 109.676 141.139C114.951 149.931 127.651 146.805 131.167 135.668C131.949 140.944 135.466 144.851 139.373 144.851C143.281 144.851 147.384 141.139 148.751 135.864C148.751 140.748 153.245 143.093 156.371 139.967C160.278 135.864 162.818 128.634 160.864 122.578C166.14 122.382 171.415 116.13 172.196 109.096C172.978 101.867 169.461 94.8332 164.186 93.2701C172.978 89.5579 179.816 77.6395 180.207 65.3304C180.597 53.0213 174.15 41.6891 165.553 38.7583C162.232 37.586 158.325 37.9768 155.589 40.9076C154.612 33.8738 151.486 27.6215 146.797 24.4954C139.373 19.4154 129.018 22.9323 123.548 32.3107C126.283 27.4261 126.478 20.5877 123.939 15.8986C121.399 11.4048 116.514 9.45093 112.411 11.6001C111.435 4.1756 105.769 -1.29513 100.103 0.267935C94.4369 1.63561 89.9433 9.6463 90.334 17.2662C89.7479 11.2094 82.519 9.6463 79.9791 14.7263C80.1745 15.117 79.7838 14.9216 79.9791 14.7263C76.4624 7.10632 69.0381 3.39405 62.3954 5.54326C55.1665 7.88786 49.1099 16.8755 48.133 26.84C43.2486 22.3462 35.8244 22.5416 30.5492 27.2308C25.2741 32.1153 22.1481 41.1029 23.125 49.309C17.4591 43.8383 8.08109 46.769 4.17359 55.3659C0.266089 63.9627 3.00134 76.0764 9.44872 79.5933C4.95509 80.1795 1.04759 86.2364 1.04759 92.2932C1.04759 98.3501 4.95509 103.43 9.44872 103.235C4.95509 103.625 0.656838 108.901 0.0707129 115.153C-0.515412 121.991 2.61059 128.244 6.90884 129.416Z" fill="url(#paint0_linear_120_201)"/>
<g opacity="0.2">
<g opacity="0.2">
<path opacity="0.2" d="M81.3456 101.477C79.0011 99.5227 76.2659 98.7411 73.5306 99.5227C70.7954 100.304 68.2555 103.235 67.6694 106.752C67.0832 110.269 68.6462 114.176 71.3815 114.763C74.7029 115.544 78.0242 111.832 81.3456 112.223C82.5179 112.418 83.6901 113.004 84.8624 113.395C89.7467 114.763 94.6311 110.464 98.734 106.361C100.102 104.993 101.665 103.43 102.642 101.477C103.618 99.5227 104.009 96.9827 103.228 95.0289C102.055 92.4889 99.1248 92.0981 96.5849 92.6843C91.7005 93.6612 86.8161 96.5919 82.9086 100.695C83.104 99.718 83.104 98.7411 83.2994 97.7642L81.3456 101.477Z" fill="white"/>
</g>
<g opacity="0.2">
<path opacity="0.2" d="M151.877 91.9023C150.509 90.73 149.337 89.7531 147.774 89.3623C146.211 88.9716 144.453 89.5577 143.28 91.1208C141.913 93.4654 142.694 96.7869 144.453 98.5454C146.211 100.108 148.36 100.499 150.509 100.89C152.658 101.281 155.589 101.085 156.761 98.5454C157.543 96.5916 156.957 94.2469 155.784 92.8793C154.612 91.5116 153.049 90.9254 151.486 90.3393L151.877 91.9023Z" fill="white"/>
</g>
<g opacity="0.2">
<path opacity="0.2" d="M41.2951 51.8489C36.8015 54.5843 33.2848 60.055 32.1125 66.1119C31.7218 67.8703 31.7218 70.2149 33.0894 71.1919C33.8709 71.778 35.0431 71.3872 36.2154 71.1919C40.5136 69.6288 44.8119 68.0657 49.1101 66.5027C46.961 67.6749 44.8119 68.8472 43.2489 70.8011C41.4905 72.7549 40.3183 75.6857 40.9044 78.421C41.4905 81.5471 44.2258 83.3056 46.7656 83.1102C49.3055 82.9148 51.8454 81.1564 53.9945 79.0072C56.339 76.858 58.4881 73.9272 58.6835 70.2149C58.8789 66.6981 55.3621 63.5719 53.213 66.1119C58.0974 64.1581 62.9818 61.0319 67.28 57.3197C68.843 55.952 70.406 54.3889 71.3829 52.2397C72.3598 50.0905 72.7505 47.5505 71.969 45.5967C67.6708 35.6322 61.8095 51.0674 59.0743 52.4351C53.6038 55.3658 47.9379 48.1367 41.2951 51.8489Z" fill="white"/>
<path opacity="0.2" d="M20.5847 96.787C19.9986 98.7409 20.3893 101.281 21.5616 102.453C22.7338 103.625 25.0783 103.039 25.6645 101.085C22.7338 102.453 19.6078 103.821 17.8495 107.142C16.0911 110.268 16.2865 115.739 19.2171 116.716C20.9755 117.302 22.9292 116.13 24.6876 114.958C29.3766 111.441 33.8702 107.338 38.1685 103.039C36.8008 106.947 39.7315 111.05 43.0528 111.05C46.1788 111.245 49.3048 108.901 52.0401 106.556C55.5569 103.821 59.4644 99.5224 58.6829 94.6378C57.9014 90.3394 53.7985 88.7763 50.4771 90.144C47.1557 91.5117 44.6158 95.224 42.2713 98.5455C44.2251 95.0286 41.6852 90.144 38.5592 89.9486C35.4332 89.5579 32.3072 92.0978 30.3535 95.224C34.0656 92.4886 34.8471 85.8456 30.1581 85.4548C26.8367 84.8687 21.3662 93.4655 20.5847 96.787Z" fill="white"/>
<path opacity="0.2" d="M119.249 76.0766C116.514 74.9043 113.192 77.4443 112.411 80.9612C111.629 84.4781 113.583 88.5811 116.514 88.9718C114.365 89.3626 112.411 90.7303 111.043 92.8795C110.262 94.0518 109.675 95.6149 109.871 96.9826C110.066 99.1318 111.825 100.499 113.583 100.499C115.341 100.499 117.1 99.3271 118.663 98.3502C116.904 98.741 115.146 98.9364 113.778 100.499C112.411 101.867 111.825 104.798 112.997 106.361C113.974 107.533 115.732 107.338 117.1 106.752C120.226 105.384 123.156 103.235 125.696 100.109C127.455 102.453 129.995 104.212 132.73 103.43C135.465 102.649 137.614 98.9364 136.833 95.8102C136.247 93.4656 134.488 92.2934 132.534 92.098C130.581 91.9026 128.822 92.6841 126.869 93.4657C128.822 91.7072 130.776 89.7534 131.557 86.8226C132.339 84.0873 130.971 80.375 128.627 80.7658C126.087 81.1565 124.719 85.6503 122.57 87.4088C119.835 84.6734 124.719 78.2258 119.249 76.0766Z" fill="white"/>
<g opacity="0.2">
<path opacity="0.2" d="M73.5308 65.3305C70.6002 68.0659 69.428 72.9504 69.6233 77.4442C69.8187 82.3288 71.3817 87.6041 74.8985 89.3626C79.5875 91.7071 85.4487 86.4318 86.4256 79.9842C87.4025 73.5366 84.2765 67.2843 79.7828 64.5489C79.7828 64.3536 76.4615 62.5951 73.5308 65.3305Z" fill="white"/>
</g>
<g opacity="0.2">
<path opacity="0.2" d="M106.159 58.1012C106.55 58.492 106.941 58.8827 107.332 59.2735C105.378 56.1474 101.275 55.952 98.9304 58.8827C96.5859 61.8135 96.3905 67.0888 98.735 69.8242C101.08 72.3642 105.182 71.778 107.332 68.4565C110.653 70.2149 115.147 69.2381 117.491 65.3304C119.836 61.6181 119.445 55.1705 116.319 53.0213C113.193 50.872 108.113 54.7797 108.504 59.4689C108.113 58.8828 107.527 58.2966 107.136 57.5151L106.159 58.1012Z" fill="white"/>
</g>
<g opacity="0.2">
<path opacity="0.2" d="M141.913 63.1809C139.569 66.307 137.029 69.4332 136.247 73.5362C135.27 77.6392 136.638 82.5238 139.764 83.3053C142.89 84.0869 145.821 80.57 147.774 77.0531C149.337 73.927 150.705 70.0193 149.924 66.5024C149.142 62.9855 145.235 61.2271 143.085 63.9624L141.913 63.1809Z" fill="white"/>
</g>
<path opacity="0.2" d="M90.7254 42.2752C89.5532 38.9536 85.841 37.9767 83.4965 40.1259C80.9567 42.2751 79.9798 46.5736 80.9567 49.8951C81.9335 53.2166 84.6688 55.3658 87.404 55.5612C90.9208 55.7566 95.219 51.8489 94.4375 47.5505C96.0005 50.0905 98.5404 50.872 101.08 50.4812C103.62 50.0905 105.965 48.332 108.114 46.769C111.044 44.4244 114.366 40.9075 114.17 36.609C113.975 33.0921 111.435 30.7476 108.7 30.5522C105.965 30.3568 103.229 32.1152 101.08 34.4598C99.3219 36.4137 97.9543 38.5629 96.1959 40.3213C94.4375 42.0798 91.8977 43.0567 90.1393 41.689L90.7254 42.2752Z" fill="white"/>
</g>
</g>
<path d="M808.482 223.575H321.256V428.653H808.482V223.575Z" fill="url(#paint1_linear_120_201)" stroke="#263238" stroke-miterlimit="10" stroke-linecap="round" stroke-linejoin="round"/>
<path d="M377.223 235.825H331.394V261.169H377.223V235.825Z" fill="white" stroke="#263238" stroke-miterlimit="10"/>
<path d="M797.289 359.59H725.061V384.934H797.289V359.59Z" fill="white" stroke="#263238" stroke-miterlimit="10"/>
<path d="M797.29 267.506H752.728V292.85H797.29V267.506Z" fill="white" stroke="#263238" stroke-miterlimit="10"/>
<path d="M377.223 328.332H331.394V353.676H377.223V328.332Z" fill="white" stroke="#263238" stroke-miterlimit="10"/>
<path d="M368.564 297.707H331.394V323.052H368.564V297.707Z" fill="white" stroke="#263238" stroke-miterlimit="10"/>
<path d="M356.737 266.871H331.394V292.216H356.737V266.871Z" fill="white" stroke="#263238" stroke-miterlimit="10"/>
<path d="M389.261 266.871H363.918V292.216H389.261V266.871Z" fill="white" stroke="#263238" stroke-miterlimit="10"/>
<path d="M421.574 266.871H396.23V292.216H421.574V266.871Z" fill="white" stroke="#263238" stroke-miterlimit="10"/>
<path d="M453.887 266.871H428.544V292.216H453.887V266.871Z" fill="white" stroke="#263238" stroke-miterlimit="10"/>
<path d="M486.411 266.871H461.067V292.216H486.411V266.871Z" fill="white" stroke="#263238" stroke-miterlimit="10"/>
<path d="M518.723 266.871H493.38V292.216H518.723V266.871Z" fill="white" stroke="#263238" stroke-miterlimit="10"/>
<path d="M551.036 266.871H525.692V292.216H551.036V266.871Z" fill="white" stroke="#263238" stroke-miterlimit="10"/>
<path d="M583.559 266.871H558.216V292.216H583.559V266.871Z" fill="white" stroke="#263238" stroke-miterlimit="10"/>
<path d="M615.874 266.871H590.53V292.216H615.874V266.871Z" fill="white" stroke="#263238" stroke-miterlimit="10"/>
<path d="M648.186 266.871H622.843V292.216H648.186V266.871Z" fill="white" stroke="#263238" stroke-miterlimit="10"/>
<path d="M680.71 266.871H655.366V292.216H680.71V266.871Z" fill="white" stroke="#263238" stroke-miterlimit="10"/>
<path d="M713.023 266.871H687.68V292.216H713.023V266.871Z" fill="white" stroke="#263238" stroke-miterlimit="10"/>
<path d="M745.335 266.871H719.991V292.216H745.335V266.871Z" fill="white" stroke="#263238" stroke-miterlimit="10"/>
<path d="M356.737 390.848H331.394V416.192H356.737V390.848Z" fill="white" stroke="#263238" stroke-miterlimit="10"/>
<path d="M389.261 390.848H363.918V416.192H389.261V390.848Z" fill="white" stroke="#263238" stroke-miterlimit="10"/>
<path d="M421.574 390.848H396.23V416.192H421.574V390.848Z" fill="white" stroke="#263238" stroke-miterlimit="10"/>
<path d="M459.59 390.848H428.544V416.192H459.59V390.848Z" fill="white" stroke="#263238" stroke-miterlimit="10"/>
<path d="M621.365 390.848H466.56V416.192H621.365V390.848Z" fill="white" stroke="#263238" stroke-miterlimit="10"/>
<path d="M698.873 390.848H673.529V416.192H698.873V390.848Z" fill="white" stroke="#263238" stroke-miterlimit="10"/>
<path d="M731.397 390.848H706.054V416.192H731.397V390.848Z" fill="white" stroke="#263238" stroke-miterlimit="10"/>
<path d="M763.71 390.848H738.366V416.192H763.71V390.848Z" fill="white" stroke="#263238" stroke-miterlimit="10"/>
<path d="M667.405 390.848H627.911V416.192H667.405V390.848Z" fill="white" stroke="#263238" stroke-miterlimit="10"/>
<path d="M797.078 390.848H771.734V416.192H797.078V390.848Z" fill="white" stroke="#263238" stroke-miterlimit="10"/>
<path d="M401.087 297.707H375.744V323.052H401.087V297.707Z" fill="white" stroke="#263238" stroke-miterlimit="10"/>
<path d="M433.612 297.707H408.269V323.052H433.612V297.707Z" fill="white" stroke="#263238" stroke-miterlimit="10"/>
<path d="M465.924 297.707H440.581V323.052H465.924V297.707Z" fill="white" stroke="#263238" stroke-miterlimit="10"/>
<path d="M498.238 297.707H472.895V323.052H498.238V297.707Z" fill="white" stroke="#263238" stroke-miterlimit="10"/>
<path d="M530.761 297.707H505.418V323.052H530.761V297.707Z" fill="white" stroke="#263238" stroke-miterlimit="10"/>
<path d="M563.074 297.707H537.73V323.052H563.074V297.707Z" fill="white" stroke="#263238" stroke-miterlimit="10"/>
<path d="M595.386 297.707H570.043V323.052H595.386V297.707Z" fill="white" stroke="#263238" stroke-miterlimit="10"/>
<path d="M627.91 297.707H602.566V323.052H627.91V297.707Z" fill="white" stroke="#263238" stroke-miterlimit="10"/>
<path d="M660.224 297.707H634.881V323.052H660.224V297.707Z" fill="white" stroke="#263238" stroke-miterlimit="10"/>
<path d="M692.537 297.707H667.193V323.052H692.537V297.707Z" fill="white" stroke="#263238" stroke-miterlimit="10"/>
<path d="M725.06 297.707H699.717V323.052H725.06V297.707Z" fill="white" stroke="#263238" stroke-miterlimit="10"/>
<path d="M757.374 297.707H732.03V323.052H757.374V297.707Z" fill="white" stroke="#263238" stroke-miterlimit="10"/>
<path d="M797.288 297.707V354.099H771.734V323.052H764.342V297.707H797.288Z" fill="white" stroke="#263238" stroke-miterlimit="10"/>
<path d="M408.48 328.754H383.137V354.099H408.48V328.754Z" fill="white" stroke="#263238" stroke-miterlimit="10"/>
<path d="M441.004 328.754H415.661V354.099H441.004V328.754Z" fill="white" stroke="#263238" stroke-miterlimit="10"/>
<path d="M473.317 328.754H447.974V354.099H473.317V328.754Z" fill="white" stroke="#263238" stroke-miterlimit="10"/>
<path d="M505.63 328.754H480.287V354.099H505.63V328.754Z" fill="white" stroke="#263238" stroke-miterlimit="10"/>
<path d="M538.154 328.754H512.811V354.099H538.154V328.754Z" fill="white" stroke="#263238" stroke-miterlimit="10"/>
<path d="M570.466 328.754H545.123V354.099H570.466V328.754Z" fill="white" stroke="#263238" stroke-miterlimit="10"/>
<path d="M602.779 328.754H577.436V354.099H602.779V328.754Z" fill="white" stroke="#263238" stroke-miterlimit="10"/>
<path d="M635.302 328.754H609.959V354.099H635.302V328.754Z" fill="white" stroke="#263238" stroke-miterlimit="10"/>
<path d="M667.617 328.754H642.273V354.099H667.617V328.754Z" fill="white" stroke="#263238" stroke-miterlimit="10"/>
<path d="M699.929 328.754H674.586V354.099H699.929V328.754Z" fill="white" stroke="#263238" stroke-miterlimit="10"/>
<path d="M732.453 328.754H707.109V354.099H732.453V328.754Z" fill="white" stroke="#263238" stroke-miterlimit="10"/>
<path d="M764.766 328.754H739.423V354.099H764.766V328.754Z" fill="white" stroke="#263238" stroke-miterlimit="10"/>
<path d="M394.753 359.59H369.409V384.934H394.753V359.59Z" fill="white" stroke="#263238" stroke-miterlimit="10"/>
<path d="M427.277 359.59H401.934V384.934H427.277V359.59Z" fill="white" stroke="#263238" stroke-miterlimit="10"/>
<path d="M459.589 359.59H434.246V384.934H459.589V359.59Z" fill="white" stroke="#263238" stroke-miterlimit="10"/>
<path d="M491.903 359.59H466.56V384.934H491.903V359.59Z" fill="white" stroke="#263238" stroke-miterlimit="10"/>
<path d="M524.426 359.59H499.083V384.934H524.426V359.59Z" fill="white" stroke="#263238" stroke-miterlimit="10"/>
<path d="M556.738 359.59H531.395V384.934H556.738V359.59Z" fill="white" stroke="#263238" stroke-miterlimit="10"/>
<path d="M589.051 359.59H563.708V384.934H589.051V359.59Z" fill="white" stroke="#263238" stroke-miterlimit="10"/>
<path d="M621.575 359.59H596.231V384.934H621.575V359.59Z" fill="white" stroke="#263238" stroke-miterlimit="10"/>
<path d="M653.889 359.59H628.546V384.934H653.889V359.59Z" fill="white" stroke="#263238" stroke-miterlimit="10"/>
<path d="M686.202 359.59H660.858V384.934H686.202V359.59Z" fill="white" stroke="#263238" stroke-miterlimit="10"/>
<path d="M718.725 359.59H693.382V384.934H718.725V359.59Z" fill="white" stroke="#263238" stroke-miterlimit="10"/>
<path d="M408.48 237.515H383.137V262.859H408.48V237.515Z" fill="white" stroke="#263238" stroke-miterlimit="10"/>
<path d="M441.004 237.515H415.661V262.859H441.004V237.515Z" fill="white" stroke="#263238" stroke-miterlimit="10"/>
<path d="M473.317 237.515H447.974V262.859H473.317V237.515Z" fill="white" stroke="#263238" stroke-miterlimit="10"/>
<path d="M505.63 237.515H480.287V262.859H505.63V237.515Z" fill="white" stroke="#263238" stroke-miterlimit="10"/>
<path d="M538.155 237.515H512.812V262.859H538.155V237.515Z" fill="white" stroke="#263238" stroke-miterlimit="10"/>
<path d="M570.466 237.515H545.123V262.859H570.466V237.515Z" fill="white" stroke="#263238" stroke-miterlimit="10"/>
<path d="M602.779 237.515H577.436V262.859H602.779V237.515Z" fill="white" stroke="#263238" stroke-miterlimit="10"/>
<path d="M635.302 237.515H609.959V262.859H635.302V237.515Z" fill="white" stroke="#263238" stroke-miterlimit="10"/>
<path d="M667.617 237.515H642.273V262.859H667.617V237.515Z" fill="white" stroke="#263238" stroke-miterlimit="10"/>
<path d="M699.929 237.515H674.586V262.859H699.929V237.515Z" fill="white" stroke="#263238" stroke-miterlimit="10"/>
<path d="M732.453 237.515H707.109V262.859H732.453V237.515Z" fill="white" stroke="#263238" stroke-miterlimit="10"/>
<path d="M764.766 237.515H739.423V262.859H764.766V237.515Z" fill="white" stroke="#263238" stroke-miterlimit="10"/>
<path d="M797.078 237.515H771.734V262.859H797.078V237.515Z" fill="white" stroke="#263238" stroke-miterlimit="10"/>
<path d="M362.228 359.59H331.394V384.934H362.228V359.59Z" fill="white" stroke="#263238" stroke-miterlimit="10"/>
<path d="M321 224L331.153 220H802.443L809 224H321Z" fill="#263238"/>
<path d="M1049.89 190.2C1094.56 190.2 1130.77 153.985 1130.77 109.311C1130.77 64.6376 1094.56 28.4226 1049.89 28.4226C1005.21 28.4226 969 64.6376 969 109.311C969 153.985 1005.21 190.2 1049.89 190.2Z" stroke="#263238" stroke-miterlimit="10" stroke-linecap="round" stroke-linejoin="round"/>
<path d="M1114.95 97.3928C1114.95 97.3928 1129.4 95.439 1136.24 96.4159C1140.54 97.002 1143.28 99.542 1144.64 101.105C1145.23 101.887 1145.62 102.668 1145.62 103.645L1146.4 114.977C1146.4 116.345 1146.01 117.517 1145.23 118.494C1142.49 121.425 1133.9 126.896 1108.5 128.654C1072.94 131.78 1114.95 97.3928 1114.95 97.3928Z" fill="white" stroke="#263238" stroke-miterlimit="10" stroke-linecap="round" stroke-linejoin="round"/>
<path d="M1104.4 68.0852C1108.5 73.1652 1116.31 84.6927 1116.31 102.473C1116.31 115.954 1100.68 162.064 1060.63 167.73C1018.24 173.592 984.24 137.446 991.469 93.6803C996.354 63.5914 1070.4 25.8825 1104.4 68.0852Z" fill="white" stroke="#263238" stroke-miterlimit="10" stroke-linecap="round" stroke-linejoin="round"/>
<path d="M1052.62 157.766C1086.61 157.766 1114.16 131.698 1114.16 99.5419C1114.16 67.3857 1086.61 41.3179 1052.62 41.3179C1018.63 41.3179 991.078 67.3857 991.078 99.5419C991.078 131.698 1018.63 157.766 1052.62 157.766Z" fill="white"/>
<path d="M1052.43 150.537C1080.26 150.537 1102.83 129.105 1102.83 102.668C1102.83 76.2309 1080.26 54.7993 1052.43 54.7993C1024.59 54.7993 1002.02 76.2309 1002.02 102.668C1002.02 129.105 1024.59 150.537 1052.43 150.537Z" fill="#263238"/>
<path d="M1113.97 99.5419C1113.97 67.3038 1086.42 41.3179 1052.43 41.3179C1018.43 41.3179 990.884 67.3038 990.884 99.5419" stroke="#263238" stroke-miterlimit="10" stroke-linecap="round" stroke-linejoin="round"/>
<path d="M1097.75 139.009C1107.91 128.654 1113.97 114.782 1113.97 99.542" stroke="#263238" stroke-miterlimit="10" stroke-linecap="round" stroke-linejoin="round"/>
<path d="M1009.44 141.159C1020.58 151.514 1035.82 157.766 1052.43 157.766C1062.78 157.766 1072.35 155.422 1080.95 151.123" stroke="#263238" stroke-miterlimit="10" stroke-linecap="round" stroke-linejoin="round"/>
<path d="M1000.65 130.803C1001.43 131.976 1002.21 133.148 1003.19 134.32" stroke="#263238" stroke-miterlimit="10" stroke-linecap="round" stroke-linejoin="round"/>
<path d="M991.078 99.542C991.078 108.334 993.227 116.931 996.939 124.356" stroke="#263238" stroke-miterlimit="10" stroke-linecap="round" stroke-linejoin="round"/>
<path d="M1142.69 115.564C1142.69 115.564 1131.75 107.944 1113.97 114.782L1142.69 115.564Z" fill="white"/>
<path d="M1142.69 115.564C1142.69 115.564 1131.75 107.944 1113.97 114.782" stroke="#263238" stroke-miterlimit="10" stroke-linecap="round" stroke-linejoin="round"/>
<path d="M1133.31 120.839C1129.21 122.011 1122.17 123.574 1110.65 124.356L1133.31 120.839Z" fill="white"/>
<path d="M1133.31 120.839C1129.21 122.011 1122.17 123.574 1110.65 124.356" stroke="#263238" stroke-miterlimit="10" stroke-linecap="round" stroke-linejoin="round"/>
<path d="M1138.98 118.299C1138.98 118.299 1138.39 118.885 1136.24 119.667L1138.98 118.299Z" fill="white"/>
<path d="M1138.98 118.299C1138.98 118.299 1138.39 118.885 1136.24 119.667" stroke="#263238" stroke-miterlimit="10" stroke-linecap="round" stroke-linejoin="round"/>
<path d="M1148.75 51.4781C1148.55 50.6965 1148.35 49.915 1147.96 49.3288C1144.25 37.8012 1139.37 25.1014 1133.51 11.6199C1132.33 9.07996 1131.36 6.53998 1130.19 4C1129.79 4 1129.4 4 1128.82 4.19538C1123.15 4.78153 1117.29 5.56307 1112.8 8.68919C1108.11 12.0107 1105.37 18.6537 1108.5 23.3429C1111.43 28.0321 1119.05 30.7675 1117.88 36.2382C1105.37 43.272 1090.13 42.4904 1076.07 46.0073C1067.67 48.1565 1059.65 51.8688 1052.82 56.9488C1050.67 58.7072 1048.52 60.4657 1046.56 62.2241C1045.78 63.0056 1044.81 63.9825 1044.02 64.9595C1042.85 66.5225 1042.07 68.0856 1041.88 69.844C1041.48 75.1194 1046.17 78.6363 1051.25 80.9809C1052.23 81.3716 1052.04 82.7393 1051.25 83.1301C1047.93 84.4978 1044.81 86.0608 1042.07 88.4054C1040.51 89.7731 1041.88 92.5085 1044.02 92.3131C1044.22 92.3131 1044.61 92.3131 1044.81 92.3131C1046.96 92.1177 1048.91 92.5085 1050.67 93.0946C1053.6 94.0715 1055.75 96.2207 1055.94 98.7607C1056.33 102.668 1051.84 106.381 1045.98 106.771C1044.61 106.967 1045.59 108.53 1047.74 108.921C1051.84 109.702 1056.14 108.921 1060.24 107.944C1065.13 106.771 1070.4 105.013 1073.14 100.91C1074.31 99.1515 1074.7 96.8069 1074.31 94.6577C1073.92 91.7269 1071.96 89.1869 1069.03 88.9916C1078.02 87.8193 1087.01 86.0608 1095.8 83.5208L1098.53 82.7393C1101.07 81.9578 1104 80.9809 1106.15 79.4178C1107.52 78.4409 1108.69 77.2686 1109.48 75.7055C1111.43 71.7979 1108.69 65.5456 1104.4 66.3271C1117.09 61.4426 1130.38 58.5118 1143.08 54.018C1144.84 53.2365 1146.79 52.455 1148.75 51.4781Z" fill="white"/>
<path d="M310.122 106H265.56C259.857 106 255 110.646 255 116.56V138.314C255 144.017 259.646 148.874 265.56 148.874H277.175L286.046 168.939L298.506 148.874H310.122C315.824 148.874 320.682 144.228 320.682 138.314V116.349C320.682 110.646 316.035 106 310.122 106Z" fill="white" stroke="#263238" stroke-miterlimit="10" stroke-linecap="round" stroke-linejoin="round"/>
<path d="M281.823 118.25C281.823 117.194 282.668 116.138 283.935 116.138C285.202 116.138 286.047 116.983 286.047 118.039C286.047 119.306 285.202 120.151 283.935 120.151C282.668 120.362 281.823 119.517 281.823 118.25ZM282.246 122.685H285.625V137.258H282.246V122.685Z" fill="#263238"/>
<path d="M293.861 122.052V122.896H297.874V125.642H294.072V137.258H290.693V125.642H288.37V122.896H290.693V122.052C290.693 119.095 292.594 116.983 295.973 116.983C297.24 116.983 298.296 117.194 299.141 117.827L298.296 120.362C297.874 119.939 297.029 119.728 296.396 119.728C294.495 119.728 293.861 120.362 293.861 122.052Z" fill="#263238"/>
<path d="M487.485 76H442.923C437.221 76 432.363 80.6465 432.363 86.5602V108.314C432.363 114.017 437.01 118.874 442.923 118.874H454.539L463.409 138.939L475.869 118.874H487.485C493.187 118.874 498.045 114.228 498.045 108.314V86.5602C497.834 80.6465 493.187 76 487.485 76Z" fill="white" stroke="#263238" stroke-miterlimit="10" stroke-linecap="round" stroke-linejoin="round"/>
<path d="M452.215 101.133H440.811C441.233 103.245 442.923 104.513 445.457 104.513C447.147 104.513 448.414 104.09 449.47 103.034L451.37 105.146C450.103 106.625 447.991 107.47 445.457 107.47C440.6 107.47 437.432 104.301 437.432 100.077C437.432 95.8534 440.6 92.6853 444.823 92.6853C449.047 92.6853 452.215 95.6422 452.215 100.077C452.215 100.5 452.215 100.922 452.215 101.133ZM440.811 98.8102H449.047C448.836 96.6982 447.147 95.2198 445.035 95.2198C442.711 95.431 441.233 96.6982 440.811 98.8102Z" fill="#263238"/>
<path d="M455.595 87.1938H458.974V107.258H455.595V87.1938Z" fill="#263238"/>
<path d="M461.72 105.78L462.987 103.245C464.254 104.09 466.155 104.724 468.056 104.724C470.167 104.724 471.012 104.09 471.012 103.034C471.012 100.289 462.142 102.823 462.142 97.1206C462.142 94.3749 464.676 92.6853 468.478 92.6853C470.379 92.6853 472.702 93.1077 473.969 93.9525L472.702 96.487C471.223 95.6422 469.956 95.431 468.478 95.431C466.366 95.431 465.521 96.0646 465.521 97.1206C465.521 100.077 474.391 97.543 474.391 103.034C474.391 105.78 471.857 107.47 467.844 107.47C465.31 107.47 462.987 106.836 461.72 105.78Z" fill="#263238"/>
<path d="M490.863 101.133H479.458C479.881 103.245 481.57 104.513 484.105 104.513C485.794 104.513 487.061 104.09 488.117 103.034L490.018 105.146C488.751 106.625 486.639 107.47 484.105 107.47C479.247 107.47 476.079 104.301 476.079 100.077C476.079 95.8534 479.247 92.6853 483.471 92.6853C487.695 92.6853 490.863 95.6422 490.863 100.077C490.863 100.5 490.863 100.922 490.863 101.133ZM479.458 98.8102H487.695C487.484 96.6982 485.794 95.2198 483.682 95.2198C481.359 95.431 479.881 96.6982 479.458 98.8102Z" fill="#263238"/>
<path d="M664.848 104H620.286C614.584 104 609.727 108.646 609.727 114.56V136.314C609.727 142.017 614.373 146.874 620.286 146.874H631.902L640.772 166.939L653.233 146.874H664.848C670.551 146.874 675.408 142.228 675.408 136.314V114.56C675.408 108.646 670.762 104 664.848 104Z" fill="white" stroke="#263238" stroke-miterlimit="10" stroke-linecap="round" stroke-linejoin="round"/>
<path d="M630.634 120.052V120.897H634.646V123.642H630.845V135.258H627.466V123.642H625.143V120.897H627.466V120.052C627.466 117.095 629.366 114.983 632.746 114.983C634.013 114.983 635.069 115.194 635.913 115.828L634.858 118.362C634.435 117.94 633.59 117.729 632.957 117.729C631.267 117.729 630.634 118.573 630.634 120.052Z" fill="#263238"/>
<path d="M635.491 128.078C635.491 123.642 638.659 120.686 643.094 120.686C647.529 120.686 650.908 123.854 650.908 128.078C650.908 132.513 647.741 135.47 643.094 135.47C638.659 135.47 635.491 132.302 635.491 128.078ZM647.318 128.078C647.318 125.332 645.417 123.642 643.094 123.642C640.56 123.642 638.87 125.332 638.87 128.078C638.87 130.823 640.771 132.513 643.094 132.513C645.629 132.513 647.318 130.823 647.318 128.078Z" fill="#263238"/>
<path d="M662.524 120.686V123.854C662.313 123.854 661.89 123.854 661.679 123.854C659.145 123.854 657.455 125.332 657.455 128.289V135.259H654.076V120.686H657.244V122.798C658.3 121.319 659.99 120.686 662.524 120.686Z" fill="#263238"/>
<path d="M842.212 121H797.65C791.947 121 787.09 125.646 787.09 131.56V153.314C787.09 159.017 791.736 163.874 797.65 163.874H809.265L818.136 183.939L830.596 163.874H842.212C847.914 163.874 852.771 159.228 852.771 153.314V131.349C852.56 125.646 847.914 121 842.212 121Z" fill="white" stroke="#263238" stroke-miterlimit="10" stroke-linecap="round" stroke-linejoin="round"/>
<path d="M814.122 137.051H826.583V139.797H814.122V137.051ZM814.122 143.599H826.583V146.344H814.122V143.599Z" fill="#263238"/>
<path d="M398.803 125H354.241C348.539 125 343.682 129.646 343.682 135.56V157.314C343.682 163.017 348.328 167.874 354.241 167.874H365.857L374.727 187.939L387.188 167.874H398.803C404.506 167.874 409.363 163.228 409.363 157.314V135.56C409.363 129.646 404.506 125 398.803 125Z" fill="white" stroke="#263238" stroke-miterlimit="10" stroke-linecap="round" stroke-linejoin="round"/>
<path d="M366.067 133.87H372.614V136.616H369.447V156.68H372.614V159.426H366.067V133.87Z" fill="#263238"/>
<path d="M380.851 159.426V156.68H384.019V136.616H380.851V133.87H387.398V159.215H380.851V159.426Z" fill="#263238"/>
<path d="M576.167 121H531.605C525.902 121 521.045 125.646 521.045 131.56V153.314C521.045 159.017 525.691 163.874 531.605 163.874H543.22L552.091 183.939L564.551 163.874H576.167C581.869 163.874 586.726 159.228 586.726 153.314V131.56C586.726 125.858 582.08 121 576.167 121Z" fill="white" stroke="#263238" stroke-miterlimit="10" stroke-linecap="round" stroke-linejoin="round"/>
<path d="M544.911 142.754C545.967 143.177 546.6 143.81 546.6 145.5V150.569C546.6 151.836 547.234 152.681 548.712 152.681H549.346V155.426H548.079C544.911 155.426 543.432 153.948 543.432 150.991V145.5C543.432 144.655 543.01 144.233 542.165 144.233H541.32V141.487H542.165C543.01 141.487 543.432 141.065 543.432 140.22V134.728C543.432 131.772 544.911 130.293 548.079 130.293H549.346V133.039H548.712C547.445 133.039 546.6 133.884 546.6 135.151V140.22C546.389 141.698 545.967 142.332 544.911 142.754Z" fill="#263238"/>
<path d="M565.608 141.276V144.021H564.763C564.129 144.021 563.496 144.444 563.496 145.289V150.78C563.496 153.737 562.017 155.215 558.849 155.215H557.371V152.47H558.005C559.483 152.47 560.117 151.625 560.117 150.358V145.289C560.117 143.599 560.539 142.965 561.595 142.543C560.539 142.121 560.117 141.487 560.117 139.797V134.729C560.117 133.461 559.483 132.616 558.005 132.616H557.371V129.871H558.638C561.806 129.871 563.285 131.349 563.285 134.306V139.797C563.285 140.642 563.707 141.065 564.552 141.065H565.608V141.276Z" fill="#263238"/>
<path d="M753.53 69H708.968C703.266 69 698.408 73.6465 698.408 79.5602V101.314C698.408 107.017 703.054 111.874 708.968 111.874H720.584L729.454 131.939L741.914 111.874H753.53C759.232 111.874 764.09 107.228 764.09 101.314V79.3489C763.879 73.6465 759.232 69 753.53 69Z" fill="white" stroke="#263238" stroke-miterlimit="10" stroke-linecap="round" stroke-linejoin="round"/>
<path d="M729.455 85.0517C729.455 83.7845 730.511 82.7285 731.778 82.7285C733.045 82.7285 734.101 83.5733 734.101 85.0517C734.101 86.3189 733.045 87.375 731.778 87.375C730.511 87.1638 729.455 86.3189 729.455 85.0517ZM733.89 95.1895C733.89 95.8231 733.679 96.2455 733.257 97.5127L731.778 101.314H729.666L730.722 97.0903C729.877 96.6679 729.455 96.0343 729.455 94.9783C729.455 93.711 730.3 92.6551 731.567 92.6551C733.045 93.0775 733.89 93.9223 733.89 95.1895Z" fill="#263238"/>
<path d="M665.56 517.938H710.122C715.824 517.938 720.682 513.292 720.682 507.378V485.624C720.682 479.922 716.035 475.064 710.122 475.064H698.506L695.127 455L677.175 475.064H665.56C659.857 475.064 655 479.711 655 485.624V507.378C655 513.292 659.857 517.938 665.56 517.938Z" fill="white" stroke="#263238" stroke-miterlimit="10" stroke-linecap="round" stroke-linejoin="round"/>
<path d="M681.188 492.172L671.895 495.762L681.188 499.353V502.098L668.728 497.241V494.284L681.188 489.426V492.172Z" fill="#263238"/>
<path d="M691.115 482.245H694.072L685.202 507.801H682.245L691.115 482.245Z" fill="#263238"/>
<path d="M707.377 494.284V497.241L694.916 502.098V499.353L704.209 495.762L694.916 492.172V489.426L707.377 494.284Z" fill="#263238"/>
<path d="M216.56 316.939H261.122C266.824 316.939 271.682 312.292 271.682 306.378V284.624C271.682 278.922 267.035 274.064 261.122 274.064H249.506L252.04 254L228.175 274.064H216.56C210.857 274.064 206 278.711 206 284.624V306.378C206 312.292 210.646 316.939 216.56 316.939Z" fill="white" stroke="#263238" stroke-miterlimit="10" stroke-linecap="round" stroke-linejoin="round"/>
<path d="M229.656 303.21C229.656 301.943 230.501 301.098 231.768 301.098C233.035 301.098 233.88 301.943 233.88 303.21C233.88 304.478 233.035 305.322 231.768 305.322C230.712 305.322 229.656 304.478 229.656 303.21ZM229.867 286.314H233.88L233.247 298.986H230.501L229.867 286.314Z" fill="#263238"/>
<path d="M237.47 291.172H249.93V293.917H237.47V291.172ZM237.47 297.719H249.93V300.465H237.47V297.719Z" fill="#263238"/>
<path d="M964.131 317.139C964.131 325.798 963.498 334.246 962.019 342.272C955.895 378.81 936.676 405.422 913.867 405.422C911.755 405.422 909.854 405.21 907.742 404.788C883.032 399.508 863.603 362.336 863.603 317.139C863.603 268.351 885.989 251.243 913.656 251.243C941.533 251.243 964.131 268.351 964.131 317.139Z" fill="white"/>
<path opacity="0.1" d="M945.968 317.773C947.869 343.962 943.434 370.151 935.831 395.284C954.627 379.866 963.498 355.367 971.312 332.346C977.014 315.449 982.716 298.342 981.66 280.601C980.604 262.86 971.101 244.485 954.627 238.36C946.602 235.403 937.098 235.615 929.073 238.783C915.134 244.274 922.737 248.92 928.65 258.847C938.788 276.588 944.49 297.075 945.968 317.773Z" fill="#AB67FD"/>
<path d="M964.131 317.139C964.131 325.798 963.498 334.246 962.019 342.272C955.895 378.81 936.676 405.422 913.867 405.422C911.755 405.422 909.854 405.21 907.742 404.788C883.032 399.508 863.603 362.336 863.603 317.139C863.603 268.351 885.989 251.243 913.656 251.243C941.533 251.243 964.131 268.351 964.131 317.139Z" stroke="#263238" stroke-miterlimit="10"/>
<path d="M940.9 361.914C937.521 373.108 932.03 383.668 924.427 392.75L940.9 361.914Z" fill="white"/>
<path d="M940.9 361.914C937.521 373.108 932.03 383.668 924.427 392.75" stroke="#263238" stroke-miterlimit="10"/>
<path d="M942.379 355.789C942.168 357.056 941.745 358.112 941.534 359.379" stroke="#263238" stroke-miterlimit="10"/>
<path d="M942.378 317.139C945.123 328.332 945.335 340.16 943.434 351.565L942.378 317.139Z" fill="white"/>
<path d="M942.378 317.139C945.123 328.332 945.335 340.16 943.434 351.565" stroke="#263238" stroke-miterlimit="10"/>
<path d="M863.813 317.139C863.813 317.139 920.836 294.54 964.131 317.139" stroke="#263238" stroke-miterlimit="10"/>
<path d="M913.867 251.243C913.867 251.243 919.569 272.363 920.203 306.789L913.867 251.243Z" fill="white"/>
<path d="M913.867 251.243C913.867 251.243 919.569 272.363 920.203 306.789" stroke="#263238" stroke-miterlimit="10"/>
<path d="M921.893 276.799C922.527 283.346 921.471 289.048 919.359 289.26C917.247 289.682 914.924 284.613 914.079 278.066C913.446 271.519 914.502 265.816 916.613 265.605C918.937 265.183 921.26 270.251 921.893 276.799Z" fill="#BFBFBF" stroke="#263238" stroke-miterlimit="10" stroke-linecap="round" stroke-linejoin="round"/>
<path d="M891.481 422.317H824.744C816.507 422.317 809.538 416.192 808.482 408.167C808.271 407.533 808.271 406.688 808.271 405.843V248.286C808.271 247.441 808.271 246.807 808.482 245.963C809.538 237.937 816.507 231.812 824.744 231.812H1014.19C1017.14 231.812 1019.68 232.657 1022 233.924" stroke="#263238" stroke-miterlimit="10"/>
<defs>
<linearGradient id="paint0_linear_120_201" x1="18.9263" y1="14.039" x2="136.094" y2="51.433" gradientUnits="userSpaceOnUse">
<stop stop-color="#C173FF"/>
<stop offset="1" stop-color="#1E18EE"/>
</linearGradient>
<linearGradient id="paint1_linear_120_201" x1="372.422" y1="241.632" x2="613.131" y2="403.101" gradientUnits="userSpaceOnUse">
<stop stop-color="#C173FF"/>
<stop offset="1" stop-color="#1E18EE"/>
</linearGradient>
</defs>
</svg>
