<svg width="146" height="204" viewBox="0 0 146 204" fill="none" xmlns="http://www.w3.org/2000/svg">
<path fill-rule="evenodd" clip-rule="evenodd" d="M10.271 0.838979C26.4525 3.32019 41.3414 9.36261 54.3938 18.5821L259.697 163.597C262.144 165.325 263.266 168.354 262.395 171.319C261.524 174.283 259.354 176.777 255.975 177.522L152.662 200.298C127.558 205.832 102.776 203.987 79.8238 194.933C72.5153 192.008 65.6285 188.486 59.1634 184.367L58.8914 184.175C52.848 179.459 46.9543 173.953 42.0262 168.235C25.8822 150.121 15.7974 126.89 12.6212 101.38L0.988023 9.94193C0.682613 7.48907 1.61466 5.01543 3.36249 3.11801C5.32116 0.922094 7.735 0.389968 10.271 0.838979Z" fill="url(#paint0_linear_123_1095)"/>
<defs>
<linearGradient id="paint0_linear_123_1095" x1="12.2189" y1="32.6004" x2="162.05" y2="197.301" gradientUnits="userSpaceOnUse">
<stop stop-color="#C173FF"/>
<stop offset="1" stop-color="#1E18EE"/>
</linearGradient>
</defs>
</svg>
