<svg width="199" height="68" viewBox="0 0 199 68" fill="none" xmlns="http://www.w3.org/2000/svg">
<g clip-path="url(#clip0_123_530)">
<path d="M0 4C0 1.79086 1.79086 0 4 0H195C197.209 0 199 1.79086 199 4V64C199 66.2091 197.209 68 195 68H3.99999C1.79086 68 0 66.2091 0 64V4Z" fill="#2A2A2A"/>
<path fill-rule="evenodd" clip-rule="evenodd" d="M45.6572 -53.1828L57.1383 -49.6924L19.6167 73.7301L8.13549 70.2397L45.6572 -53.1828ZM133.679 -26.4231L122.198 -29.9135L84.6765 93.509L96.1577 96.9994L133.679 -26.4231ZM38.0026 -55.5097L26.5214 -59.0001L-11.0002 64.4225L0.48092 67.9129L38.0026 -55.5097ZM152.814 -20.6057L141.333 -24.0961L103.811 99.3264L115.292 102.817L152.814 -20.6057ZM64.7919 -47.3654L76.2731 -43.875L38.7514 79.5475L27.2703 76.0571L64.7919 -47.3654ZM171.95 -14.7885L160.469 -18.2789L122.947 105.144L134.428 108.634L171.95 -14.7885ZM83.9277 -41.5482L95.4088 -38.0578L57.8872 85.3648L46.406 81.8744L83.9277 -41.5482ZM191.085 -8.9711L179.603 -12.4615L142.082 110.961L153.563 114.451L191.085 -8.9711ZM103.062 -35.7308L114.544 -32.2404L77.0219 91.1821L65.5408 87.6918L103.062 -35.7308ZM210.22 -3.15384L198.739 -6.64423L161.218 116.778L172.699 120.269L210.22 -3.15384Z" fill="white"/>
</g>
<defs>
<clipPath id="clip0_123_530">
<path d="M0 4C0 1.79086 1.79086 0 4 0H195C197.209 0 199 1.79086 199 4V64C199 66.2091 197.209 68 195 68H3.99999C1.79086 68 0 66.2091 0 64V4Z" fill="white"/>
</clipPath>
</defs>
</svg>
