<svg width="100" height="36" viewBox="0 0 100 36" fill="none" xmlns="http://www.w3.org/2000/svg">
<path d="M49.48 13.856L50.968 12.736C51.7146 13.76 52.5786 14.272 53.56 14.272C54.0293 14.272 54.3973 14.1707 54.664 13.968C54.9306 13.7547 55.064 13.4667 55.064 13.104C55.064 12.8053 54.9733 12.576 54.792 12.416C54.6106 12.2453 54.2533 12.0373 53.72 11.792L52.584 11.28C50.8773 10.5227 50.024 9.50932 50.024 8.23999C50.024 7.34399 50.3546 6.62399 51.016 6.07999C51.6773 5.52532 52.5146 5.24799 53.528 5.24799C54.3173 5.24799 55.0106 5.42932 55.608 5.79199C56.2053 6.14399 56.6746 6.62932 57.016 7.24799L55.544 8.38399C55 7.57332 54.328 7.16799 53.528 7.16799C53.144 7.16799 52.8293 7.25865 52.584 7.43999C52.3386 7.62132 52.216 7.87199 52.216 8.19199C52.216 8.45865 52.3013 8.67732 52.472 8.84799C52.6533 9.00799 52.9786 9.19465 53.448 9.40799L54.648 9.93599C55.5546 10.3413 56.216 10.784 56.632 11.264C57.048 11.7333 57.256 12.32 57.256 13.024C57.256 13.9733 56.9093 14.7413 56.216 15.328C55.5226 15.904 54.6373 16.192 53.56 16.192C52.6746 16.192 51.8746 15.984 51.16 15.568C50.456 15.152 49.896 14.5813 49.48 13.856Z" fill="white"/>
<path d="M66.2895 11.088V16H64.1455V11.392C64.1455 10.9333 64.0068 10.5653 63.7295 10.288C63.4628 9.99999 63.1108 9.85599 62.6735 9.85599C62.2361 9.85599 61.8735 9.99999 61.5855 10.288C61.3081 10.5653 61.1695 10.9333 61.1695 11.392V16H59.0095V3.99999H61.1695V8.75199C61.7348 8.18665 62.4601 7.90399 63.3455 7.90399C64.2415 7.90399 64.9561 8.19732 65.4895 8.78399C66.0228 9.35999 66.2895 10.128 66.2895 11.088Z" fill="white"/>
<path d="M68.3689 16V8.07999H70.5289V16H68.3689ZM68.0649 5.19999C68.0649 4.81599 68.1982 4.49599 68.4649 4.23999C68.7315 3.98399 69.0569 3.85599 69.4409 3.85599C69.8249 3.85599 70.1502 3.98399 70.4169 4.23999C70.6942 4.49599 70.8329 4.81599 70.8329 5.19999C70.8329 5.57332 70.6942 5.88799 70.4169 6.14399C70.1502 6.39999 69.8249 6.52799 69.4409 6.52799C69.0569 6.52799 68.7315 6.39999 68.4649 6.14399C68.1982 5.88799 68.0649 5.57332 68.0649 5.19999Z" fill="white"/>
<path d="M79.9457 11.088V16H77.8017V11.376C77.8017 10.9173 77.6631 10.5493 77.3857 10.272C77.1191 9.98399 76.7671 9.83999 76.3297 9.83999C75.8924 9.83999 75.5297 9.98399 75.2417 10.272C74.9644 10.5493 74.8257 10.9173 74.8257 11.376V16H72.6657V8.07999H74.6497V8.79999C75.2471 8.20265 76.0204 7.90399 76.9697 7.90399C77.8871 7.90399 78.6124 8.19199 79.1457 8.76799C79.6791 9.34399 79.9457 10.1173 79.9457 11.088Z" fill="white"/>
<path d="M87.9931 8.07999H89.9771V15.12C89.9771 16.3893 89.6091 17.3653 88.8731 18.048C88.1371 18.7307 87.1398 19.072 85.8811 19.072C84.3984 19.072 83.1024 18.5813 81.9931 17.6L83.1291 16.096C84.0464 16.7787 84.9051 17.12 85.7051 17.12C86.3558 17.12 86.8678 16.96 87.2411 16.64C87.6251 16.32 87.8171 15.856 87.8171 15.248V14.816C87.2411 15.4453 86.4358 15.76 85.4011 15.76C84.3024 15.76 83.3958 15.392 82.6811 14.656C81.9664 13.92 81.6091 12.976 81.6091 11.824C81.6091 10.6613 81.9664 9.71732 82.6811 8.99199C83.3958 8.26665 84.3024 7.90399 85.4011 7.90399C86.5531 7.90399 87.4171 8.29332 87.9931 9.07199V8.07999ZM87.8491 11.792C87.8491 11.1413 87.6571 10.64 87.2731 10.288C86.8998 9.92532 86.4251 9.74399 85.8491 9.74399C85.2518 9.74399 84.7611 9.93065 84.3771 10.304C83.9931 10.6773 83.8011 11.1787 83.8011 11.808C83.8011 12.4373 83.9931 12.9493 84.3771 13.344C84.7718 13.7387 85.2624 13.936 85.8491 13.936C86.4144 13.936 86.8891 13.744 87.2731 13.36C87.6571 12.976 87.8491 12.4533 87.8491 11.792Z" fill="white"/>
<path d="M50.216 28V17.44H52.376V21.488H57.048V17.44H59.208V28H57.048V23.44H52.376V28H50.216Z" fill="white"/>
<path d="M60.9521 24.032C60.9308 22.9013 61.3414 21.9253 62.1841 21.104C63.0268 20.2827 64.0294 19.8827 65.1921 19.904C66.3548 19.8827 67.3574 20.2827 68.2001 21.104C69.0534 21.9253 69.4694 22.9013 69.4481 24.032C69.4694 25.1627 69.0534 26.144 68.2001 26.976C67.3468 27.7973 66.3388 28.1973 65.1761 28.176C64.0134 28.1973 63.0108 27.7973 62.1681 26.976C61.3361 26.144 60.9308 25.1627 60.9521 24.032ZM66.6481 25.584C67.0428 25.1787 67.2401 24.6667 67.2401 24.048C67.2401 23.4293 67.0428 22.912 66.6481 22.496C66.2641 22.08 65.7788 21.872 65.1921 21.872C64.5948 21.872 64.1041 22.08 63.7201 22.496C63.3361 22.9013 63.1441 23.4187 63.1441 24.048C63.1441 24.6667 63.3361 25.1787 63.7201 25.584C64.1041 25.9893 64.5948 26.192 65.1921 26.192C65.7788 26.192 66.2641 25.9893 66.6481 25.584Z" fill="white"/>
<path d="M77.35 28V19.392H73.974V17.44H82.902V19.392H79.51V28H77.35Z" fill="white"/>
<path d="M89.837 23.296V28H87.853V27.232C87.2343 27.872 86.429 28.192 85.437 28.192C84.605 28.192 83.9383 27.9733 83.437 27.536C82.9463 27.0987 82.701 26.528 82.701 25.824C82.701 25.1093 82.9676 24.5493 83.501 24.144C84.045 23.728 84.7756 23.52 85.693 23.52H87.677V23.168C87.677 22.72 87.549 22.3787 87.293 22.144C87.0476 21.8987 86.685 21.776 86.205 21.776C85.8103 21.776 85.453 21.8613 85.133 22.032C84.813 22.2027 84.4716 22.48 84.109 22.864L82.989 21.536C83.9063 20.448 85.0583 19.904 86.445 19.904C87.4903 19.904 88.317 20.2027 88.925 20.8C89.533 21.3867 89.837 22.2187 89.837 23.296ZM87.677 25.04V24.944H85.981C85.245 24.944 84.877 25.2107 84.877 25.744C84.877 26.0107 84.9783 26.224 85.181 26.384C85.3943 26.5333 85.6716 26.608 86.013 26.608C86.493 26.608 86.8876 26.464 87.197 26.176C87.517 25.8773 87.677 25.4987 87.677 25.04Z" fill="white"/>
<path d="M99.1957 23.088V28H97.0517V23.376C97.0517 22.9173 96.9131 22.5493 96.6357 22.272C96.3691 21.984 96.0171 21.84 95.5797 21.84C95.1424 21.84 94.7797 21.984 94.4917 22.272C94.2144 22.5493 94.0757 22.9173 94.0757 23.376V28H91.9157V20.08H93.8997V20.8C94.4971 20.2027 95.2704 19.904 96.2197 19.904C97.1371 19.904 97.8624 20.192 98.3957 20.768C98.9291 21.344 99.1957 22.1173 99.1957 23.088Z" fill="white"/>
<path fill-rule="evenodd" clip-rule="evenodd" d="M5.47479 0.945095C6.73594 0.315032 8.08307 0 9.45887 0H31.099C31.357 0 31.5863 0.157516 31.6722 0.409541C31.7582 0.661566 31.7296 0.945095 31.5289 1.16562L25.3952 7.90729C23.9047 9.54545 22.0703 10.6481 20.0066 11.1521C19.3474 11.3096 18.6882 11.4041 18.0289 11.4356H18.0003C17.341 11.4041 16.6531 11.3096 16.0226 11.1521C13.9875 10.6796 12.1245 9.54545 10.634 7.90729L5.27416 2.0477C5.13084 1.89019 5.07352 1.66967 5.10218 1.44914C5.13084 1.19712 5.27416 1.0396 5.47479 0.945095ZM26.857 10.333L33.22 17.3267C33.3347 17.4527 33.478 17.6103 33.5926 17.7363C36.0289 20.7291 36.6595 24.919 35.2837 28.6049C34.8824 29.676 34.3092 30.6841 33.5926 31.5662C33.5066 31.6607 33.4207 31.7552 33.3347 31.8497C33.22 31.9757 33.0767 32.0702 32.9047 32.0702C32.7328 32.0702 32.5894 32.0072 32.4461 31.8812L26.3984 25.234C26.3984 25.234 26.3984 25.234 26.3697 25.2025C25.0799 23.6589 24.1914 21.7372 23.7901 19.6895C23.6468 18.9649 23.5608 18.2403 23.5321 17.5158V17.4842C23.5608 16.8857 23.6181 16.2556 23.7041 15.6571L23.7614 15.279C24.1054 13.4833 24.8506 11.8137 25.8824 10.3645C25.9971 10.207 26.1404 10.1125 26.341 10.1125C26.5703 10.1125 26.7423 10.1755 26.857 10.333ZM3.55441 3.11881L9.60218 9.76598C9.60218 9.76598 9.60218 9.76598 9.63084 9.79748C10.9207 11.3411 11.8092 13.2628 12.2105 15.3105C12.3538 16.0351 12.4398 16.7597 12.4684 17.4842V17.5158C12.4398 18.1143 12.3824 18.7444 12.2964 19.3429L12.2391 19.721C11.8952 21.5167 11.15 23.1863 10.1181 24.6355C10.0035 24.793 9.86014 24.8875 9.65951 24.8875C9.48753 24.8875 9.31556 24.8245 9.17225 24.6985L2.78053 17.7048C2.66588 17.5788 2.52256 17.4212 2.40791 17.2952C-0.0283926 14.3024 -0.658966 10.1125 0.716831 6.42664C1.1181 5.35554 1.69135 4.34743 2.40791 3.46535C2.4939 3.37084 2.57989 3.27633 2.66588 3.18182C2.78053 3.05581 2.92384 2.9613 3.09581 2.9613C3.26779 2.92979 3.4111 2.9928 3.55441 3.11881ZM18.0289 23.5959C18.6882 23.6274 19.3761 23.7219 20.0066 23.8794C22.0417 24.3519 23.9047 25.486 25.3952 27.1242L30.7264 32.9838C30.8697 33.1413 30.927 33.3618 30.8984 33.5824C30.8697 33.8029 30.7264 33.9919 30.5544 34.0864C29.2933 34.7165 27.9461 35.0315 26.5703 35.0315H4.93021C4.67225 35.0315 4.44295 34.874 4.35696 34.622C4.27097 34.3699 4.29963 34.0864 4.50027 33.8659L10.6054 27.1242C12.0958 25.486 13.9302 24.3834 15.9939 23.8794C16.6531 23.7219 17.3124 23.6274 17.9716 23.5959C18.0003 23.5959 18.0003 23.5959 18.0289 23.5959Z" fill="white"/>
</svg>
