<svg width="80" height="80" viewBox="0 0 80 80" fill="none" xmlns="http://www.w3.org/2000/svg">
<g clip-path="url(#clip0_120_466)">
<path d="M0 4C0 1.79086 1.79086 0 4 0H76C78.2091 0 80 1.79086 80 4V76C80 78.2091 78.2091 80 76 80H4C1.79086 80 0 78.2091 0 76V4Z" fill="#2A2A2A"/>
<path fill-rule="evenodd" clip-rule="evenodd" d="M-13.3428 -47.1828L-1.86166 -43.6924L-39.3833 79.7301L-50.8645 76.2397L-13.3428 -47.1828ZM74.6794 -20.4231L63.1982 -23.9135L25.6765 99.509L37.1577 102.999L74.6794 -20.4231ZM-20.9974 -49.5097L-32.4786 -53.0001L-70.0002 70.4225L-58.5191 73.9129L-20.9974 -49.5097ZM93.8141 -14.6057L82.333 -18.0961L44.8113 105.326L56.2924 108.817L93.8141 -14.6057ZM5.79194 -41.3654L17.2731 -37.875L-20.2486 85.5475L-31.7297 82.0571L5.79194 -41.3654ZM112.95 -8.78849L101.469 -12.2789L63.947 111.144L75.4282 114.634L112.95 -8.78849ZM24.9277 -35.5482L36.4088 -32.0578L-1.11283 91.3648L-12.594 87.8744L24.9277 -35.5482ZM132.085 -2.9711L120.603 -6.46149L83.0818 116.961L94.5629 120.451L132.085 -2.9711ZM44.0624 -29.7308L55.5436 -26.2404L18.0219 97.1821L6.54076 93.6918L44.0624 -29.7308ZM151.22 2.84616L139.739 -0.644229L102.218 122.778L113.699 126.269L151.22 2.84616Z" fill="white"/>
</g>
<defs>
<clipPath id="clip0_120_466">
<path d="M0 4C0 1.79086 1.79086 0 4 0H76C78.2091 0 80 1.79086 80 4V76C80 78.2091 78.2091 80 76 80H4C1.79086 80 0 78.2091 0 76V4Z" fill="white"/>
</clipPath>
</defs>
</svg>
